<svg xmlns="http://www.w3.org/2000/svg" width="20" height="24" viewBox="0 0 20 24">
  <g id="bag" transform="translate(-49)">
    <g id="Group_4" data-name="Group 4" transform="translate(49)">
      <path id="Path_10" data-name="Path 10" d="M67.59,7.559a2.291,2.291,0,0,0-.745-1.492A2.41,2.41,0,0,0,65.2,5.44h-1.41V4.333a4.044,4.044,0,0,0-1.41-3.057A5.028,5.028,0,0,0,59,0a4.929,4.929,0,0,0-3.378,1.276,4.044,4.044,0,0,0-1.41,3.057V5.44H52.8a2.41,2.41,0,0,0-1.649.626,2.291,2.291,0,0,0-.745,1.492L49,21.809v.169a1.831,1.831,0,0,0,.665,1.4A2.712,2.712,0,0,0,51.154,24H66.819a2.714,2.714,0,0,0,1.516-.626A1.843,1.843,0,0,0,69,21.954v-.169ZM55.676,4.333a2.866,2.866,0,0,1,.984-2.142,3.591,3.591,0,0,1,4.734,0,2.866,2.866,0,0,1,.984,2.142V5.44h-6.7ZM67.511,21.978a.583.583,0,0,1-.239.481,1.15,1.15,0,0,1-.612.265H51.287a1.068,1.068,0,0,1-.612-.265.583.583,0,0,1-.239-.481v-.072l1.41-14.227a1.063,1.063,0,0,1,.346-.674.911.911,0,0,1,.612-.241h1.41V9.7a.722.722,0,0,0,1.436,0V6.764H62.3V9.7a.722.722,0,0,0,1.436,0V6.764h1.41a.911.911,0,0,1,.612.241,1.064,1.064,0,0,1,.346.674l1.41,14.251Z" transform="translate(-49)" fill="#202945"/>
    </g>
  </g>
</svg>
