<svg xmlns="http://www.w3.org/2000/svg" width="191" height="35" viewBox="0 0 191 35">
  <g id="origins_logo" transform="translate(-297.965 -265.386)">
    <path id="Path_1" data-name="Path 1" d="M344.216,291.513c0-9.242,6.159-17.813,17.492-17.813,10.219,0,16.913,7.321,16.913,16.652,0,10.312-6.649,18.3-17.448,18.348-11.646.045-16.957-9.151-16.957-17.187m30.166-.09c0-9.286-6.025-15.223-13.476-15.223-7.675,0-12.45,6.071-12.45,14.331.045,9.375,5.622,15.624,13.565,15.624,5.354,0,12.361-3.749,12.361-14.731" transform="translate(-46.251 -8.314)" fill="#202945"/>
    <path id="Path_2" data-name="Path 2" d="M401.236,287.485c0-6.385-.09-11.429-.536-12.9a16.866,16.866,0,0,0,2.052.089c.892,0,4.329-.179,5.891-.179,3.034,0,5.889.4,7.808,1.608a8.586,8.586,0,0,1,3.971,7.321c0,3.884-1.829,7.009-5.444,9.509,2.856,3.795,6.113,8.3,9.192,11.608a14.894,14.894,0,0,0,4.106,3.615,10.462,10.462,0,0,1-2.9.268c-2.008,0-3.078-.58-4.908-2.5-2.454-2.455-6.6-8.616-8.656-11.385a.7.7,0,0,0-.58-.312c-.937.045-4.15,0-6.114-.045-.134,0-.134.09-.134.268v1.384c0,5.625.179,10.446.4,12.411a11.917,11.917,0,0,0-1.963-.09,22.1,22.1,0,0,0-2.633.134,126.3,126.3,0,0,0,.447-12.946Zm3.748,3.66c0,.269.045.358.134.4a37.027,37.027,0,0,0,5.489.312,4.3,4.3,0,0,0,2.588-.536,8.306,8.306,0,0,0,3.391-6.831c0-4.731-3.035-7.634-8.166-7.634a19.74,19.74,0,0,0-3.257.179c-.179.045-.179.134-.179.313Z" transform="translate(-61.386 -8.527)" fill="#202945"/>
    <path id="Path_3" data-name="Path 3" d="M444.889,287.457c0-6.339-.09-11.7-.4-12.813.4.046,1.339.046,1.874.046a24.239,24.239,0,0,0,2.677-.134c-.134,1.651-.313,6.608-.313,12.947v7.857a128.873,128.873,0,0,0,.4,12.9c-.4-.045-1.25-.09-1.963-.09-.892,0-2.186.09-2.587.134.178-1.517.312-7.142.312-12.946Z" transform="translate(-73.134 -8.544)" fill="#202945"/>
    <path id="Path_4" data-name="Path 4" d="M490.3,303.567c0,1.964,0,2.722.044,3.169a29.251,29.251,0,0,1-11.156,1.964c-5.621,0-11.065-1.828-14.591-5.715a17.507,17.507,0,0,1-4.461-12.007c0-7.278,3.613-11.652,6.917-13.885,4.6-3.258,9.771-3.393,12.806-3.393a38.773,38.773,0,0,1,10.932,1.92,22.817,22.817,0,0,0-.491,4.374c-1.027-1.2-4.819-3.66-11.824-3.66a14.314,14.314,0,0,0-9.595,3.259,13.851,13.851,0,0,0-4.373,10.491c0,5.135,1.874,8.84,4.1,11.072a16.076,16.076,0,0,0,11.647,4.776,14.709,14.709,0,0,0,6.025-1.071c.134-.089.179-.4.179-1.383v-5.625a36.176,36.176,0,0,0-.536-6.473c.624.045,1.472.045,2.142.045a15.68,15.68,0,0,0,2.5-.134c-.133,1.115-.268,4.6-.268,7.589Z" transform="translate(-77.309 -8.314)" fill="#202945"/>
    <path id="Path_5" data-name="Path 5" d="M513.4,287.457c0-6.339-.09-11.7-.4-12.813.4.046,1.339.046,1.874.046a24.227,24.227,0,0,0,2.677-.134c-.134,1.651-.313,6.608-.313,12.947v7.857a128.8,128.8,0,0,0,.4,12.9c-.4-.045-1.25-.09-1.963-.09-.892,0-2.187.09-2.588.134.178-1.517.312-7.142.312-12.946Z" transform="translate(-91.503 -8.544)" fill="#202945"/>
    <path id="Path_6" data-name="Path 6" d="M534.149,307.941c-.446,0-1.873.09-2.186.134.357-3.706.49-23.749.49-31.741,0-2.41.09-2.633.358-2.633.177,0,.536.358,1.428,1.249,4.24,4.42,19.856,22.59,23.383,25.848-.09-7.232-.179-21.7-.536-26.428a10.248,10.248,0,0,0,1.74.089,21.683,21.683,0,0,0,2.232-.135c-.224,2.679-.492,13.26-.492,22.322,0,3.794.045,5.848.045,7.857,0,3.84-.088,4.2-.357,4.2-.312,0-1.116-.8-3.57-3.347-3.658-3.706-16.287-18.84-21.24-24.107.089,9.6.224,23.259.58,26.786a13.077,13.077,0,0,0-1.874-.09" transform="translate(-96.51 -8.314)" fill="#202945"/>
    <path id="Path_7" data-name="Path 7" d="M580.883,302.494a9.585,9.585,0,0,0,7.542,3.527c4.239,0,6.2-2.679,6.2-6.027,0-2.767-.981-4.552-4.82-7.142l-2.185-1.474c-4.686-3.124-5.89-6.026-5.89-9.151,0-4.644,3.526-8.527,9.639-8.527a20.976,20.976,0,0,1,4.283.447c1.116.178,1.963.312,2.275.357a26.854,26.854,0,0,0-.357,4.286c-.848-1.026-2.811-2.589-6.47-2.589-3.347,0-5.667,2.142-5.667,5.134,0,2.456.58,4.106,4.731,6.875l2.053,1.384c5.309,3.526,6.336,6.25,6.336,9.6a9.436,9.436,0,0,1-3.882,7.59,12.165,12.165,0,0,1-6.738,1.919c-2.856,0-5.979-.8-7.407-1.829a27.954,27.954,0,0,0,.357-4.376" transform="translate(-109.588 -8.314)" fill="#202945"/>
  </g>
</svg>
